<svg width="604" height="303" viewBox="0 0 604 303" fill="none" xmlns="http://www.w3.org/2000/svg">
<g clip-path="url(#clip0_19_189)">
<path d="M199.204 302.282C181.009 302.282 162.841 301.956 144.7 301.305C118.779 300.374 91.9755 299.412 67.0626 285.594C49.635 275.929 34.2001 260.423 22.427 240.75C14.5581 227.416 8.78831 212.95 5.32023 197.86C-1.14907 170.388 -0.928721 141.764 5.96276 114.395C8.3778 105.011 11.7071 95.8862 15.9029 87.1521C34.0708 49.5299 67.2079 24.2751 106.818 17.8638C107.145 17.8214 107.475 17.8143 107.804 17.8428C107.982 17.8523 108.16 17.8625 108.341 17.8549L108.574 17.7809C109.171 17.5732 109.785 17.4157 110.409 17.31C171.497 8.2157 236.077 26.6167 297.161 70.5224C344.391 104.475 406.984 122.758 488.518 126.416L489.676 126.476C512.373 127.78 534.327 137.137 553.169 153.538C571.766 169.726 585.73 191.323 593.549 215.996C594.511 219.004 595.392 222.135 596.169 225.302C596.892 228.245 596.841 231.325 596.021 234.243C595.2 237.16 593.639 239.816 591.488 241.951V241.957L591.285 242.166C590.797 242.652 590.282 243.118 589.756 243.552L589.138 244.061C583.928 248.354 579.812 251.744 574.887 254.378C571.602 256.122 568.108 257.441 564.49 258.303C544.621 263.147 524.444 267.638 504.519 271.652C465.824 279.454 426.109 285.89 386.478 290.781C324.347 298.442 261.805 302.283 199.204 302.282ZM107.341 19.1753C107.219 19.1741 107.098 19.1824 106.977 19.1999C67.7377 25.5513 34.9144 50.5581 16.9266 87.8079C12.7722 96.4554 9.47586 105.489 7.08484 114.78C0.256153 141.907 0.0385417 170.277 6.4503 197.506C9.88443 212.451 15.5983 226.778 23.3913 239.985C35.0491 259.465 50.3261 274.816 67.571 284.379C92.2603 298.072 118.938 299.03 144.737 299.956C225.427 302.839 306.218 299.323 386.353 289.441C425.958 284.552 465.647 278.121 504.317 270.323C524.229 266.312 544.392 261.825 564.247 256.983C567.778 256.143 571.188 254.856 574.394 253.154C579.22 250.574 583.296 247.216 588.456 242.964L589.075 242.455C589.527 242.082 589.971 241.683 590.395 241.268L590.517 241.14C594.758 236.866 596.407 231.226 595.042 225.669V225.668C594.273 222.535 593.401 219.437 592.45 216.46C576.475 166.058 535.151 130.438 489.62 127.823L488.468 127.763C451.225 126.092 418.634 121.462 388.838 113.609C353.268 104.234 322.215 90.1226 296.541 71.6662C235.689 27.9288 171.38 9.59626 110.558 18.6474C109.99 18.7455 109.431 18.8904 108.886 19.0807L108.466 19.1983C108.228 19.209 107.989 19.2061 107.75 19.1897C107.61 19.1825 107.474 19.1753 107.341 19.1753Z" fill="#F0F0F0"/>
<path d="M188.976 98.4872C187.292 96.8712 185.569 87.859 183.418 86.9441C185.026 90.4968 183.859 91.4374 183.85 95.3364C183.87 97.5504 183.612 99.758 183.081 101.907H146.651V73.4772C146.651 70.9226 147.154 68.3931 148.132 66.033C149.109 63.6729 150.542 61.5285 152.349 59.7222C154.155 57.9158 156.299 56.483 158.659 55.5055C161.02 54.5279 163.549 54.0248 166.104 54.0249C167.079 54.0439 168.047 54.1857 168.987 54.447C172.118 55.2924 174.972 56.9463 177.262 59.2428C179.552 61.5393 181.198 64.3977 182.035 67.5313C184.812 77.6821 189.229 94.5789 188.976 98.4872Z" fill="#2F2E41"/>
<path d="M148.789 133.462L148.807 111.302L135.781 112.466L140.378 126.442L138.226 161.572C137.183 161.806 136.23 162.339 135.484 163.105C134.738 163.871 134.231 164.838 134.025 165.887C133.819 166.937 133.923 168.024 134.324 169.015C134.725 170.006 135.406 170.86 136.283 171.471C137.161 172.082 138.197 172.425 139.266 172.457C140.335 172.49 141.39 172.21 142.303 171.653C143.216 171.096 143.947 170.286 144.408 169.32C144.868 168.355 145.037 167.277 144.895 166.217L148.789 133.462Z" fill="#FFB6B6"/>
<path d="M174.424 291.815L179.687 291.815L182.19 271.517H174.423L174.424 291.815Z" fill="#FFB6B6"/>
<path d="M172.642 289.219L180.961 288.723V292.287L188.87 297.749C189.261 298.019 189.555 298.406 189.71 298.855C189.864 299.304 189.872 299.791 189.73 300.244C189.589 300.697 189.307 301.093 188.924 301.375C188.542 301.656 188.08 301.808 187.605 301.808H177.701L175.994 298.282L175.327 301.808H171.593L172.642 289.219Z" fill="#2F2E41"/>
<path d="M143.996 291.815L149.259 291.815L151.762 271.517H143.995L143.996 291.815Z" fill="#FFB6B6"/>
<path d="M142.213 289.219L150.532 288.723V292.287L158.441 297.749C158.832 298.019 159.126 298.406 159.281 298.855C159.436 299.304 159.443 299.791 159.302 300.244C159.16 300.697 158.878 301.093 158.496 301.375C158.113 301.656 157.651 301.808 157.176 301.808H147.272L145.565 298.282L144.898 301.808H141.164L142.213 289.219Z" fill="#2F2E41"/>
<path d="M169.738 87.3716L158.837 87.5854L151.141 95.7083L144.972 96.6131C142.181 97.0224 139.615 98.3773 137.703 100.451C135.791 102.525 134.649 105.192 134.468 108.007L135.537 113.878H141.949L145.659 135.66C144.217 139.336 144.119 142.237 147.08 143.377L156.271 160.692L183.419 148.507C184.796 146.14 185.237 143.763 183.83 141.451L185.77 108.106H192.296C192.296 101.87 190.187 96.6123 183.989 95.9183C181.527 95.6519 179.054 95.5105 176.579 95.4945L169.738 87.3716Z" fill="#E6E6E6"/>
<path d="M183.418 148.507C183.418 148.507 156.912 153.21 147.079 143.377C147.079 143.377 146.081 145.072 144.576 147.882C144.144 148.691 143.308 149.238 142.804 150.217C142.345 151.107 141.166 152.201 140.666 153.21C140.264 154.022 140.909 155.083 140.491 155.96C135.455 166.522 129.572 181.421 130.833 191.259C131.646 197.604 133.326 212.367 135.096 228.223C135.234 229.462 134.114 231.053 134.253 232.302C134.384 233.479 135.774 234.314 135.905 235.494C135.992 236.277 135.022 237.077 135.108 237.859C135.204 238.718 136.356 239.56 136.451 240.415C138.874 262.309 141.094 282.749 141.094 282.749H153.492L155.831 236.066L153.919 219.048L158.408 184.633L164.607 217.338L165.405 235.745L171.956 283.604H183.418V237.274L184.273 234.867L183.418 231.78L184.273 228.454L183.418 224.832V148.507Z" fill="#2F2E41"/>
<path d="M173.084 81.0499C171.395 83.2932 168.992 84.8944 166.272 85.59C163.552 86.2855 160.676 86.0339 158.117 84.8765C155.559 83.7191 153.471 81.725 152.198 79.2225C150.924 76.72 150.541 73.8584 151.111 71.109C151.681 68.3596 153.17 65.8863 155.334 64.0964C157.497 62.3065 160.206 61.3068 163.013 61.2618C165.821 61.2169 168.56 62.1294 170.78 63.8492C172.999 65.5689 174.567 67.9934 175.225 70.7231C175.26 70.8712 175.29 71.0185 175.319 71.1714C175.667 72.8824 175.647 74.6477 175.262 76.3506C174.876 78.0534 174.134 79.6551 173.084 81.0499Z" fill="#FFB6B6"/>
<path d="M170.507 73.9985C170.245 72.6828 169.582 71.4806 168.609 70.5569C168.705 71.8178 168.53 73.0845 168.096 74.2721C164.846 74.56 161.581 73.9132 158.686 72.4081C156.506 70.9289 153.731 71.0572 150.499 72.4081C150.499 70.8361 150.808 69.2794 151.41 67.8269C152.011 66.3745 152.893 65.0548 154.005 63.9432C155.116 62.8316 156.436 61.9498 157.888 61.3483C159.341 60.7468 160.898 60.4373 162.47 60.4375H164.607C167.782 60.4381 170.826 61.6995 173.071 63.9443C175.316 66.1891 176.577 69.2335 176.578 72.4081C174.605 73.1158 172.573 73.6479 170.507 73.9985Z" fill="#2F2E41"/>
<path d="M76.9886 226.569C95.9816 226.569 111.378 211.172 111.378 192.179C111.378 173.186 95.9816 157.789 76.9886 157.789C57.9955 157.789 42.5986 173.186 42.5986 192.179C42.5986 211.172 57.9955 226.569 76.9886 226.569Z" fill="#F0F0F0"/>
<path d="M296.14 68.7799C315.133 68.7799 330.53 53.383 330.53 34.3899C330.53 15.3969 315.133 0 296.14 0C277.147 0 261.75 15.3969 261.75 34.3899C261.75 53.383 277.147 68.7799 296.14 68.7799Z" fill="#F0F0F0"/>
<path d="M569.237 231.963C588.23 231.963 603.627 216.567 603.627 197.574C603.627 178.58 588.23 163.184 569.237 163.184C550.244 163.184 534.847 178.58 534.847 197.574C534.847 216.567 550.244 231.963 569.237 231.963Z" fill="#F0F0F0"/>
<path d="M358.177 38.1403V116.122C358.177 117.742 357.538 119.296 356.399 120.447C355.26 121.599 353.712 122.254 352.092 122.271C352.07 122.273 352.047 122.274 352.025 122.274H342.949C335.687 122.274 328.722 119.389 323.587 114.254C318.452 109.119 315.567 102.154 315.567 94.8924V38.1403C315.567 36.5087 316.216 34.9439 317.369 33.7902C318.523 32.6364 320.088 31.9883 321.719 31.9883H325.397C323.693 36.9584 346.817 39.0509 348.086 31.9883H352.025C353.657 31.9883 355.221 32.6365 356.375 33.7902C357.529 34.9439 358.177 36.5087 358.177 38.1403Z" fill="#FFF500"/>
<path d="M331.243 26.1573C331.243 25.9436 331.328 25.7386 331.48 25.5875C331.631 25.4364 331.836 25.3513 332.049 25.3511H337.532C337.745 25.3517 337.95 25.4369 338.1 25.588C338.251 25.7392 338.336 25.9439 338.336 26.1573C338.336 26.3707 338.251 26.5755 338.1 26.7266C337.95 26.8777 337.745 26.9629 337.532 26.9636H332.049C331.836 26.9633 331.631 26.8783 331.48 26.7272C331.328 26.576 331.243 26.3711 331.243 26.1573Z" fill="#3F3D56"/>
<path d="M353.909 132.165H319.238C316.548 132.162 313.969 131.092 312.067 129.19C310.165 127.288 309.095 124.71 309.092 122.02V67.5074C308.902 67.3707 308.747 67.1905 308.64 66.9819C308.533 66.7733 308.477 66.5423 308.478 66.3079V60.8255C308.477 60.5912 308.533 60.3601 308.64 60.1516C308.747 59.943 308.902 59.763 309.092 59.6264V58.1549C308.902 58.0183 308.747 57.8382 308.64 57.6297C308.533 57.4211 308.477 57.1901 308.478 56.9558V51.473C308.477 51.2387 308.533 51.0077 308.64 50.7991C308.747 50.5906 308.902 50.4105 309.092 50.2739V47.6145C308.857 47.4883 308.661 47.3005 308.524 47.0713C308.387 46.8421 308.316 46.5801 308.316 46.3133V40.8309C308.316 40.564 308.387 40.302 308.524 40.0727C308.661 39.8435 308.857 39.6556 309.092 39.5293V32.2423C309.095 29.5524 310.165 26.9736 312.067 25.0716C313.969 23.1696 316.548 22.0997 319.238 22.0967H353.909C356.598 22.0997 359.177 23.1696 361.079 25.0716C362.981 26.9736 364.051 29.5525 364.054 32.2423V48.1265C364.237 48.2408 364.388 48.3996 364.492 48.5882C364.596 48.7767 364.651 48.9886 364.651 49.2041V59.658C364.651 59.8735 364.596 60.0855 364.492 60.2741C364.388 60.4626 364.237 60.6216 364.054 60.7359V122.02C364.051 124.71 362.981 127.288 361.079 129.19C359.177 131.092 356.598 132.162 353.909 132.165ZM319.238 23.4453C316.906 23.4479 314.67 24.3756 313.02 26.0248C311.371 27.6739 310.443 29.91 310.441 32.2423V40.6765L309.792 40.7015C309.758 40.7027 309.726 40.7168 309.703 40.7409C309.679 40.7649 309.666 40.7972 309.665 40.8309V46.3133C309.666 46.347 309.679 46.3791 309.703 46.4032C309.727 46.4272 309.758 46.4414 309.792 46.4427L310.441 46.4674V51.2208L309.928 51.3472C309.899 51.3541 309.874 51.3701 309.856 51.3929C309.837 51.4156 309.827 51.4438 309.826 51.473V56.9558C309.827 56.985 309.837 57.0131 309.856 57.0359C309.874 57.0586 309.899 57.0747 309.928 57.0815L310.441 57.208V60.5732L309.928 60.6997C309.899 60.7065 309.874 60.7226 309.856 60.7453C309.837 60.7681 309.827 60.7963 309.826 60.8255V66.3079C309.827 66.3371 309.837 66.3654 309.856 66.3882C309.874 66.411 309.899 66.4271 309.928 66.434L310.441 66.5604V122.02C310.443 124.352 311.371 126.588 313.02 128.237C314.67 129.886 316.906 130.814 319.238 130.817H353.909C356.241 130.814 358.477 129.886 360.126 128.237C361.775 126.588 362.703 124.352 362.706 122.02V59.5812H363.303V49.2812H362.706V32.2423C362.703 29.91 361.775 27.674 360.126 26.0248C358.477 24.3756 356.241 23.448 353.909 23.4453L319.238 23.4453Z" fill="#3F3D56"/>
<path d="M340.595 26.9636C341.041 26.9636 341.402 26.6026 341.402 26.1573C341.402 25.712 341.041 25.3511 340.595 25.3511C340.15 25.3511 339.789 25.712 339.789 26.1573C339.789 26.6026 340.15 26.9636 340.595 26.9636Z" fill="#3F3D56"/>
<path d="M165.209 182.336H74.9949C73.7138 182.333 72.486 181.822 71.5801 180.917C70.6741 180.011 70.1636 178.783 70.1602 177.502V133.544C70.1634 132.263 70.6738 131.035 71.5796 130.129C72.4855 129.223 73.7131 128.713 74.9943 128.709H165.209C166.49 128.713 167.717 129.223 168.623 130.129C169.529 131.035 170.04 132.262 170.043 133.544V177.501C170.04 178.782 169.53 180.01 168.624 180.916C167.718 181.822 166.49 182.333 165.209 182.336Z" fill="white"/>
<path d="M165.209 182.336H74.9949C73.7138 182.333 72.486 181.822 71.5801 180.917C70.6741 180.011 70.1636 178.783 70.1602 177.502V133.544C70.1634 132.263 70.6738 131.035 71.5796 130.129C72.4855 129.223 73.7131 128.713 74.9943 128.709H165.209C166.49 128.713 167.717 129.223 168.623 130.129C169.529 131.035 170.04 132.262 170.043 133.544V177.501C170.04 178.782 169.53 180.01 168.624 180.916C167.718 181.822 166.49 182.333 165.209 182.336ZM74.9949 130.058C74.0711 130.061 73.1858 130.429 72.5326 131.082C71.8794 131.736 71.5113 132.621 71.5088 133.545V177.501C71.5115 178.425 71.8797 179.31 72.533 179.964C73.1864 180.617 74.0717 180.985 74.9956 180.987H165.208C166.132 180.985 167.017 180.617 167.671 179.963C168.324 179.31 168.692 178.425 168.695 177.501V133.544C168.692 132.62 168.324 131.735 167.67 131.082C167.017 130.429 166.132 130.061 165.208 130.058L74.9949 130.058Z" fill="#3F3D56"/>
<path d="M124.937 175.84C107.145 175.84 88.5925 175.67 81.6704 175.559C80.7597 175.541 79.8924 175.167 79.2537 174.517C78.615 173.868 78.2555 172.994 78.252 172.083V135.696C78.2523 135.37 78.3818 135.057 78.6122 134.826C78.8426 134.595 79.155 134.465 79.4812 134.464H160.719C161.046 134.464 161.358 134.594 161.589 134.824C161.82 135.054 161.95 135.367 161.952 135.693V160.381C161.936 164.411 160.342 168.274 157.511 171.143C154.68 174.011 150.838 175.655 146.809 175.723C140.357 175.807 132.718 175.84 124.937 175.84Z" fill="#FFF500"/>
<path d="M155.897 158.113H82.4923C81.8776 158.111 81.2784 157.92 80.776 157.566C80.2737 157.212 79.8925 156.711 79.6844 156.133L71.376 132.825C71.2159 132.375 71.166 131.894 71.2305 131.421C71.295 130.948 71.472 130.498 71.7467 130.107C72.0214 129.717 72.3857 129.398 72.809 129.178C73.2324 128.958 73.7024 128.843 74.1796 128.842L165.935 128.714C166.371 128.713 166.802 128.809 167.197 128.993C167.593 129.177 167.943 129.446 168.223 129.78C168.503 130.114 168.707 130.506 168.82 130.927C168.932 131.348 168.951 131.789 168.874 132.219L168.945 132.249L168.682 132.863L168.679 132.87L158.635 156.306C158.406 156.842 158.025 157.3 157.538 157.621C157.051 157.942 156.481 158.113 155.897 158.113ZM165.939 130.062L74.1822 130.19C73.9208 130.191 73.6633 130.254 73.4314 130.375C73.1995 130.495 72.9999 130.67 72.8494 130.883C72.6989 131.097 72.6019 131.344 72.5666 131.603C72.5312 131.862 72.5585 132.126 72.6462 132.372L80.9543 155.679C81.0685 155.996 81.2775 156.27 81.5528 156.464C81.8281 156.658 82.1564 156.763 82.4932 156.764H155.897C156.217 156.764 156.529 156.671 156.795 156.495C157.062 156.319 157.27 156.069 157.396 155.775L167.44 132.338C167.546 132.09 167.589 131.819 167.565 131.55C167.541 131.281 167.451 131.022 167.302 130.796C167.153 130.571 166.951 130.386 166.713 130.258C166.475 130.129 166.209 130.062 165.939 130.062Z" fill="#3F3D56"/>
<path d="M119.965 163.186C123.139 163.186 125.712 160.613 125.712 157.438C125.712 154.264 123.139 151.69 119.965 151.69C116.79 151.69 114.217 154.264 114.217 157.438C114.217 160.613 116.79 163.186 119.965 163.186Z" fill="white"/>
<path d="M337.094 113.287C340.268 113.287 342.841 110.714 342.841 107.539C342.841 104.365 340.268 101.792 337.094 101.792C333.919 101.792 331.346 104.365 331.346 107.539C331.346 110.714 333.919 113.287 337.094 113.287Z" fill="white"/>
<path d="M554.489 190.911L539.135 175.753C538.388 175.009 537.501 174.42 536.525 174.02C535.55 173.619 534.505 173.415 533.451 173.419H533.397C532.334 173.423 531.283 173.636 530.304 174.048C529.325 174.46 528.437 175.063 527.692 175.82C524.259 179.294 522.306 183.964 522.245 188.849C522.183 193.733 524.017 198.45 527.362 202.01C527.523 202.186 527.692 202.354 527.861 202.523C528.794 203.451 529.825 204.276 530.935 204.984C533.971 206.945 537.51 207.983 541.124 207.971H541.239C543.719 207.963 546.174 207.463 548.46 206.5C550.745 205.537 552.818 204.13 554.557 202.361C556.063 200.832 556.902 198.769 556.89 196.622C556.877 194.476 556.014 192.422 554.489 190.911ZM553.599 201.41C550.748 204.282 546.995 206.083 542.971 206.511C538.947 206.938 534.899 205.966 531.509 203.757C530.539 203.115 529.633 202.381 528.805 201.565C525.496 198.298 523.621 193.85 523.592 189.2C523.563 184.55 525.382 180.079 528.65 176.771C529.271 176.138 530.011 175.635 530.829 175.291C531.646 174.947 532.524 174.77 533.41 174.768H533.451C534.329 174.765 535.198 174.935 536.011 175.268C536.823 175.601 537.562 176.091 538.184 176.71L553.538 191.875C554.809 193.133 555.53 194.843 555.541 196.63C555.553 198.418 554.854 200.137 553.599 201.41Z" fill="#3F3D56"/>
<path d="M504.111 141.161L488.757 125.995C487.246 124.496 485.202 123.657 483.073 123.662H483.026C481.962 123.666 480.909 123.881 479.929 124.295C478.949 124.708 478.06 125.311 477.314 126.069C474.476 128.952 472.636 132.668 472.063 136.672C471.49 140.677 472.215 144.759 474.131 148.322L474.138 148.328C474.929 149.786 475.911 151.13 477.058 152.327C477.186 152.475 477.334 152.624 477.483 152.772C481.009 156.272 485.778 158.231 490.746 158.221H490.868C493.349 158.21 495.803 157.709 498.089 156.744C500.374 155.78 502.447 154.373 504.185 152.604C504.932 151.847 505.522 150.952 505.923 149.967C506.323 148.983 506.525 147.929 506.519 146.867C506.512 145.804 506.295 144.753 505.882 143.774C505.469 142.795 504.868 141.907 504.111 141.161ZM503.221 151.66C501.607 153.301 499.684 154.607 497.562 155.502C495.441 156.397 493.163 156.862 490.861 156.872H490.746C487.289 156.871 483.909 155.847 481.031 153.93C478.154 152.012 475.908 149.287 474.575 146.097C473.243 142.906 472.883 139.393 473.542 135.998C474.201 132.604 475.849 129.48 478.278 127.02C479.535 125.749 481.246 125.029 483.033 125.018C484.821 125.006 486.54 125.705 487.813 126.96L503.167 142.118C504.437 143.377 505.156 145.089 505.167 146.878C505.177 148.666 504.477 150.386 503.221 151.66Z" fill="#3F3D56"/>
<path d="M555.47 195.677L538.543 178.958C537.433 177.864 535.934 177.256 534.376 177.265C532.817 177.275 531.327 177.902 530.23 179.01C528.859 180.395 527.774 182.038 527.037 183.843C526.301 185.648 525.928 187.58 525.939 189.53C525.95 191.479 526.345 193.408 527.102 195.204C527.858 197.001 528.962 198.631 530.349 200.001C531.736 201.371 533.379 202.454 535.185 203.188C536.991 203.923 538.924 204.294 540.874 204.281C542.823 204.268 544.751 203.87 546.547 203.111C548.343 202.353 549.971 201.248 551.34 199.859L555.47 195.677Z" fill="#FFF500"/>
<path d="M505.096 145.923L488.169 129.205C487.059 128.111 485.56 127.502 484.002 127.512C482.443 127.522 480.953 128.149 479.856 129.256C478.485 130.642 477.4 132.284 476.663 134.089C475.927 135.895 475.554 137.827 475.565 139.777C475.576 141.726 475.971 143.654 476.728 145.451C477.484 147.248 478.588 148.878 479.975 150.247C481.362 151.617 483.005 152.701 484.811 153.435C486.617 154.169 488.55 154.54 490.5 154.527C492.449 154.514 494.377 154.117 496.173 153.358C497.969 152.599 499.597 151.494 500.966 150.106L505.096 145.923Z" fill="#FFF500"/>
<path d="M536.869 206.09L536.465 207.155C534.563 206.434 532.72 205.71 530.935 204.984C499.323 192.084 484.232 176.987 474.138 148.328L474.131 148.322C473.652 146.973 473.187 145.593 472.735 144.181L473.801 143.837C474.157 145.195 474.678 146.504 475.352 147.735C475.905 149.306 476.473 150.837 477.058 152.327C486.545 176.515 500.537 190.338 527.361 202.01C528.71 202.597 530.092 203.179 531.508 203.757C533.153 204.828 534.965 205.617 536.869 206.09Z" fill="#3F3D56"/>
<path d="M488.475 156.993L487.527 157.953L522.55 192.544L523.498 191.584L488.475 156.993Z" fill="#3F3D56"/>
<path d="M191.969 128.331L191.987 106.171L178.961 107.335L183.558 121.311L166.871 146.608C165.827 146.842 164.874 147.375 164.128 148.141C163.382 148.907 162.876 149.874 162.67 150.924C162.464 151.973 162.567 153.06 162.968 154.051C163.369 155.043 164.05 155.896 164.928 156.507C165.805 157.118 166.842 157.461 167.911 157.493C168.98 157.526 170.035 157.247 170.948 156.69C171.861 156.133 172.592 155.322 173.052 154.357C173.512 153.391 173.682 152.313 173.54 151.253L191.969 128.331Z" fill="#FFB6B6"/>
</g>
<defs>
<clipPath id="clip0_19_189">
<rect width="603.003" height="302.282" fill="white" transform="translate(0.623047)"/>
</clipPath>
</defs>
</svg>
