<svg width="556" height="403" viewBox="0 0 556 403" fill="none" xmlns="http://www.w3.org/2000/svg">
<g clip-path="url(#clip0_18_129)">
<path d="M257.859 388.16C258.479 393.017 260.758 397.46 263.189 401.741C263.269 401.887 263.352 402.03 263.437 402.176H288.707C289.218 402.043 289.723 401.898 290.225 401.741C293.08 400.872 295.774 399.546 298.205 397.815C307.502 391.116 311.079 378.457 309.463 367.114C308.458 360.067 305.366 352.872 299.344 349.077C296.074 347.085 292.173 346.401 288.42 347.163C288.325 347.18 288.229 347.202 288.131 347.222C286.569 347.524 285.089 348.153 283.788 349.068C282.486 349.983 281.393 351.163 280.58 352.531C277.71 357.631 279.419 363.95 280.831 369.627C282.238 375.304 283.001 382.098 278.917 386.285C279.515 384.534 279.637 382.655 279.269 380.842C278.901 379.028 278.057 377.345 276.823 375.966C275.589 374.587 274.011 373.561 272.249 372.995C270.488 372.428 268.608 372.34 266.801 372.741C266.506 372.804 266.214 372.876 265.927 372.963C265.233 373.166 264.564 373.446 263.933 373.798C259.116 376.489 257.165 382.685 257.859 388.16Z" fill="#F2F2F2"/>
<path d="M272.842 401.741C272.142 401.904 271.44 402.048 270.733 402.176H274.554C275.054 402.041 275.552 401.898 276.046 401.741C277.131 401.402 278.2 401.012 279.251 400.573C283.518 398.841 287.306 396.109 290.297 392.608C291.735 390.895 292.909 388.976 293.781 386.916C294.726 384.587 295.327 382.134 295.564 379.632C295.998 374.46 295.652 369.252 294.538 364.183C293.489 358.957 291.798 353.882 289.501 349.073C289.225 348.496 288.939 347.923 288.644 347.354C288.624 347.307 288.593 347.266 288.554 347.233C288.515 347.199 288.47 347.176 288.42 347.163C288.32 347.143 288.216 347.164 288.131 347.222C288.029 347.28 287.954 347.375 287.92 347.488C287.886 347.6 287.897 347.722 287.95 347.826C290.319 352.445 292.114 357.336 293.296 362.39C294.513 367.348 295.048 372.448 294.886 377.55C294.799 382.296 293.318 386.91 290.627 390.82C288.011 394.341 284.57 397.165 280.606 399.044C278.127 400.23 275.523 401.135 272.842 401.741Z" fill="white"/>
<path d="M264.457 402.176H265.583C265.709 402.032 265.831 401.887 265.951 401.741C268.517 398.623 270.255 394.908 271.005 390.94C271.915 385.988 271.207 380.874 268.984 376.356C268.364 375.089 267.634 373.88 266.801 372.741C266.505 372.804 266.214 372.876 265.927 372.963C269.108 377.142 270.74 382.297 270.543 387.546C270.346 392.795 268.332 397.812 264.846 401.741C264.72 401.887 264.589 402.032 264.457 402.176Z" fill="white"/>
<path d="M550.798 135.339L437.466 176.447L388.389 41.1078L501.721 0L550.798 135.339Z" fill="#F1F1F1"/>
<path d="M550.798 135.339L437.466 176.447L388.389 41.1078L501.721 0L550.798 135.339Z" fill="#F1F1F1"/>
<path d="M502.185 65.665L437.388 89.168L438.499 92.232L503.296 68.729L502.185 65.665Z" fill="white"/>
<path d="M505.074 73.6313L440.277 97.1343L441.388 100.198L506.185 76.6953L505.074 73.6313Z" fill="white"/>
<path d="M507.962 81.5981L443.166 105.101L444.277 108.165L509.073 84.6621L507.962 81.5981Z" fill="white"/>
<path d="M432.838 95.1868C434.013 95.1868 434.965 94.2344 434.965 93.0597C434.965 91.8849 434.013 90.9326 432.838 90.9326C431.664 90.9326 430.711 91.8849 430.711 93.0597C430.711 94.2344 431.664 95.1868 432.838 95.1868Z" fill="white"/>
<path d="M489.737 31.3383L424.94 54.8413L426.052 57.9053L490.848 34.4023L489.737 31.3383Z" fill="white"/>
<path d="M492.626 39.3046L427.829 62.8076L428.94 65.8716L493.737 42.3686L492.626 39.3046Z" fill="white"/>
<path d="M495.514 47.2709L430.718 70.7739L431.829 73.8379L496.626 50.3349L495.514 47.2709Z" fill="white"/>
<path d="M420.27 60.5266C421.444 60.5266 422.397 59.5743 422.397 58.3995C422.397 57.2248 421.444 56.2725 420.27 56.2725C419.095 56.2725 418.143 57.2248 418.143 58.3995C418.143 59.5743 419.095 60.5266 420.27 60.5266Z" fill="white"/>
<path d="M514.753 100.325L449.957 123.828L451.068 126.892L515.864 103.389L514.753 100.325Z" fill="white"/>
<path d="M517.642 108.291L452.845 131.794L453.956 134.858L518.753 111.355L517.642 108.291Z" fill="white"/>
<path d="M520.531 116.258L455.734 139.761L456.845 142.825L521.642 119.322L520.531 116.258Z" fill="white"/>
<path d="M445.286 129.514C446.461 129.514 447.413 128.562 447.413 127.387C447.413 126.212 446.461 125.26 445.286 125.26C444.111 125.26 443.159 126.212 443.159 127.387C443.159 128.562 444.111 129.514 445.286 129.514Z" fill="white"/>
<path d="M556 176.435H435.445V32.4702H556V176.435Z" fill="white"/>
<path d="M556 176.435H435.445V32.4702H556V176.435ZM437.572 174.308H553.873V34.5973H437.572V174.308Z" fill="#E5E5E5"/>
<path d="M515.092 85.6805H484.872C484.446 85.68 484.037 85.5105 483.736 85.2091C483.435 84.9077 483.265 84.4991 483.265 84.0728V53.8493C483.265 53.4231 483.435 53.0145 483.736 52.7131C484.037 52.4117 484.446 52.2422 484.872 52.2417H515.092C515.518 52.2422 515.926 52.4117 516.228 52.7131C516.529 53.0145 516.698 53.4231 516.699 53.8493V84.0728C516.698 84.4991 516.529 84.9077 516.228 85.2091C515.926 85.5105 515.518 85.68 515.092 85.6805ZM484.872 52.8847C484.616 52.885 484.371 52.9867 484.19 53.1676C484.01 53.3484 483.908 53.5936 483.908 53.8493V84.0728C483.908 84.3286 484.01 84.5738 484.19 84.7546C484.371 84.9354 484.616 85.0371 484.872 85.0374H515.092C515.347 85.0371 515.592 84.9354 515.773 84.7546C515.954 84.5738 516.056 84.3286 516.056 84.0728V53.8493C516.056 53.5936 515.954 53.3484 515.773 53.1676C515.592 52.9868 515.347 52.885 515.092 52.8847H484.872Z" fill="#E5E5E5"/>
<path d="M506.412 89.378H476.192C475.809 89.3776 475.441 89.225 475.17 88.9537C474.899 88.6825 474.746 88.3147 474.746 87.9311V57.7076C474.746 57.324 474.899 56.9563 475.17 56.685C475.441 56.4138 475.809 56.2612 476.192 56.2607H506.412C506.795 56.2612 507.163 56.4138 507.434 56.685C507.705 56.9563 507.858 57.324 507.858 57.7076V87.9311C507.858 88.3147 507.705 88.6825 507.434 88.9537C507.163 89.225 506.795 89.3776 506.412 89.378Z" fill="#FFF050"/>
<path d="M537.888 102.186H453.557V105.445H537.888V102.186Z" fill="#F1F1F1"/>
<path d="M537.888 110.684H453.557V113.943H537.888V110.684Z" fill="#F1F1F1"/>
<path d="M537.888 119.182H453.557V122.441H537.888V119.182Z" fill="#F1F1F1"/>
<path d="M537.888 134.138H453.557V137.397H537.888V134.138Z" fill="#F1F1F1"/>
<path d="M537.888 142.636H453.557V145.896H537.888V142.636Z" fill="#F1F1F1"/>
<path d="M537.888 151.134H453.557V154.394H537.888V151.134Z" fill="#F1F1F1"/>
<path d="M162.411 393.717H171.28L175.5 359.502L162.409 359.503L162.411 393.717Z" fill="#FFB8B8"/>
<path d="M160.147 390.821L177.614 390.82C180.566 390.82 183.398 391.993 185.486 394.081C187.573 396.169 188.746 399 188.746 401.953V402.315L160.148 402.316L160.147 390.821Z" fill="#2F2E41"/>
<path d="M100.294 387.642L108.903 389.773L121.218 357.574L108.512 354.429L100.294 387.642Z" fill="#FFB8B8"/>
<path d="M98.7941 384.287L115.749 388.483C118.615 389.193 121.082 391.012 122.607 393.54C124.132 396.068 124.59 399.098 123.881 401.964L123.794 402.316L96.0332 395.445L98.7941 384.287Z" fill="#2F2E41"/>
<path d="M133.105 248.553L125.306 292.952C125.306 292.952 122.306 298.352 123.506 300.752C124.706 303.152 125.306 303.152 123.506 304.352C121.706 305.552 119.307 304.352 119.906 307.352C120.266 309.131 120.467 310.938 120.506 312.752L103.709 370.352C103.709 370.352 92.9101 375.152 100.709 378.152C108.508 381.152 116.307 383.552 118.107 380.552C119.906 377.552 118.107 373.952 118.107 373.952L145.703 307.952C145.703 307.952 149.902 301.952 149.902 298.352C149.902 294.752 163.7 268.953 163.7 268.953C163.7 268.953 164.3 294.752 164.9 296.552C165.5 298.352 163.7 301.952 163.7 304.352C163.7 306.752 162.501 306.752 163.7 307.952C164.9 309.152 164.9 322.952 164.9 322.952C164.9 322.952 157.701 376.352 161.901 376.952C166.1 377.552 178.098 376.352 178.098 373.952C178.151 373.326 178.005 372.7 177.682 372.162C177.359 371.623 176.875 371.2 176.299 370.952L184.098 325.352C183.77 323.532 183.979 321.656 184.697 319.952C185.897 317.552 185.897 317.552 185.897 316.352C185.897 315.152 185.297 314.552 185.897 313.952C186.289 313.434 186.5 312.802 186.497 312.152C186.497 312.152 185.297 308.552 185.897 307.952C186.497 307.352 199.695 262.353 195.496 256.953C191.296 251.553 133.105 248.553 133.105 248.553Z" fill="#2F2E41"/>
<path d="M159.935 152.74C168.549 152.74 175.533 145.756 175.533 137.14C175.533 128.524 168.549 121.54 159.935 121.54C151.32 121.54 144.337 128.524 144.337 137.14C144.337 145.756 151.32 152.74 159.935 152.74Z" fill="#FFB8B8"/>
<path d="M148.914 148.437C149.716 147.899 149.748 146.668 149.479 145.669C149.093 144.712 148.851 143.702 148.763 142.673C148.878 139.889 152.711 138.773 152.93 136.003C153.065 134.299 151.743 132.415 152.506 130.94C152.988 130.009 154.108 129.698 155.128 129.519C159.087 128.835 163.139 128.89 167.078 129.68L167.653 128.17L170.572 130.096C170.732 129.159 172.029 129.065 172.876 129.515C173.724 129.965 174.458 130.741 175.382 130.891C176.857 131.13 178.022 129.534 177.944 127.998C177.724 126.443 177.027 124.996 175.948 123.856C173.492 120.815 170.514 118.236 167.153 116.242L167.963 114.782L166.228 115.479L166.037 113.732L164.347 114.683L164.323 113.11C162.513 115.188 159.362 115.116 156.596 115.304C151.971 115.518 147.528 117.17 143.886 120.03C142.069 121.514 140.58 123.361 139.515 125.452C138.45 127.544 137.833 129.834 137.701 132.178C137.544 135.848 138.809 140.315 141.519 143.036C143.982 145.51 147.631 144.009 148.914 148.437Z" fill="#2F2E41"/>
<path d="M198.208 288.495C197.416 287.752 196.797 286.844 196.393 285.836C195.99 284.828 195.813 283.744 195.874 282.659C195.935 281.575 196.233 280.517 196.747 279.561C197.26 278.604 197.978 277.772 198.848 277.123L194.688 260.666L204.071 255.698L209.619 279.021C210.613 280.556 211.01 282.401 210.733 284.209C210.457 286.016 209.528 287.659 208.121 288.827C206.715 289.995 204.929 290.606 203.102 290.545C201.274 290.484 199.533 289.754 198.208 288.495Z" fill="#FFB8B8"/>
<path d="M173.131 267.197C154.171 267.199 136.719 258.616 136.483 258.499L136.288 258.401L134.697 220.212C134.235 218.862 125.15 192.233 123.611 183.769C122.052 175.194 144.647 167.668 147.391 166.788L148.013 159.889L173.334 157.161L176.543 165.987L185.627 169.394C186.657 169.781 187.509 170.531 188.022 171.504C188.535 172.477 188.674 173.605 188.412 174.673L183.363 195.207L193.294 263.143L193.039 263.258C186.758 265.969 179.971 267.312 173.131 267.197Z" fill="#FFF050"/>
<path d="M195.767 271.46L186.98 235.281L177.456 191.624L182.291 169.865H186.424C186.5 169.865 194.01 169.977 195.628 179.681C197.194 189.08 201.917 218.992 201.965 219.292L209.947 270.389L195.767 271.46Z" fill="#FFF050"/>
<path d="M314.776 403H0.824021C0.605477 403 0.395871 402.913 0.241337 402.758C0.086803 402.604 0 402.394 0 402.176C0 401.957 0.086803 401.748 0.241337 401.593C0.395871 401.438 0.605477 401.352 0.824021 401.352H314.776C314.994 401.352 315.204 401.438 315.359 401.593C315.513 401.748 315.6 401.957 315.6 402.176C315.6 402.394 315.513 402.604 315.359 402.758C315.204 402.913 314.994 403 314.776 403Z" fill="#CBCBCB"/>
<path d="M180.168 320.081L99.4062 267.486L164.092 168.132L244.854 220.727L180.168 320.081Z" fill="white"/>
<path d="M180.168 320.081L99.4062 267.486L164.092 168.132L244.854 220.727L180.168 320.081ZM101.83 266.974L179.656 317.657L242.43 221.239L164.604 170.556L101.83 266.974Z" fill="#E5E5E5"/>
<path d="M156.767 224.182L155.303 226.431L200.434 255.822L201.898 253.573L156.767 224.182Z" fill="#FFF050"/>
<path d="M152.96 230.031L151.495 232.281L196.626 261.672L198.091 259.423L152.96 230.031Z" fill="#FFF050"/>
<path d="M149.152 235.878L147.688 238.127L192.819 267.519L194.283 265.269L149.152 235.878Z" fill="#FFF050"/>
<path d="M151.953 224.87C152.92 224.87 153.704 224.085 153.704 223.118C153.704 222.15 152.92 221.366 151.953 221.366C150.985 221.366 150.201 222.15 150.201 223.118C150.201 224.085 150.985 224.87 151.953 224.87Z" fill="#FFF050"/>
<path d="M173.173 198.982L171.709 201.231L216.84 230.623L218.305 228.373L173.173 198.982Z" fill="#E5E5E5"/>
<path d="M169.366 204.83L167.901 207.08L213.033 236.471L214.497 234.222L169.366 204.83Z" fill="#E5E5E5"/>
<path d="M165.558 210.68L164.094 212.929L209.225 242.321L210.689 240.071L165.558 210.68Z" fill="#E5E5E5"/>
<path d="M168.519 199.425C169.486 199.425 170.271 198.641 170.271 197.673C170.271 196.706 169.486 195.921 168.519 195.921C167.552 195.921 166.768 196.706 166.768 197.673C166.768 198.641 167.552 199.425 168.519 199.425Z" fill="#E5E5E5"/>
<path d="M140.201 249.626L138.736 251.875L183.868 281.267L185.332 279.017L140.201 249.626Z" fill="#E5E5E5"/>
<path d="M136.393 255.474L134.929 257.724L180.06 287.115L181.524 284.866L136.393 255.474Z" fill="#E5E5E5"/>
<path d="M132.586 261.323L131.121 263.572L176.252 292.964L177.717 290.714L132.586 261.323Z" fill="#E5E5E5"/>
<path d="M135.546 250.069C136.514 250.069 137.298 249.285 137.298 248.318C137.298 247.35 136.514 246.566 135.546 246.566C134.579 246.566 133.795 247.35 133.795 248.318C133.795 249.285 134.579 250.069 135.546 250.069Z" fill="#E5E5E5"/>
<path d="M158.168 265.346C158.117 264.261 157.828 263.201 157.323 262.24C156.817 261.279 156.107 260.44 155.243 259.783C154.378 259.126 153.38 258.667 152.319 258.437C151.258 258.208 150.159 258.214 149.1 258.455L139.278 244.611L129.411 248.529L143.556 267.884C144.079 269.636 145.226 271.135 146.78 272.098C148.335 273.06 150.188 273.419 151.989 273.106C153.79 272.793 155.414 271.831 156.553 270.4C157.692 268.97 158.266 267.172 158.168 265.346Z" fill="#FFB8B8"/>
<path d="M139.025 264.32L109.306 225.76L120.441 190.758C121.257 181.958 126.763 179.501 126.997 179.4L127.355 179.247L137.045 205.091L129.93 224.067L147.393 253.441L139.025 264.32Z" fill="#FFF050"/>
<path d="M329.118 256.305H324.174V257.953H329.118V256.305Z" fill="#CBCBCB"/>
<path d="M468.323 257.953H458.38V256.305H468.323V257.953ZM448.437 257.953H438.494V256.305H448.437L448.437 257.953ZM428.551 257.953H418.608V256.305H428.551V257.953ZM408.664 257.953H398.721V256.305H408.664V257.953ZM388.778 257.953H378.835V256.305H388.778V257.953ZM368.892 257.953H358.948V256.305H368.892V257.953ZM349.005 257.953H339.062V256.305H349.005V257.953Z" fill="#CBCBCB"/>
<path d="M484.035 257.953H478.267V256.305H482.387V252.184H484.035V257.953Z" fill="#CBCBCB"/>
<path d="M484.034 242.179H482.386V247.182H484.034V242.179Z" fill="#CBCBCB"/>
<path d="M484.034 232.232H482.386V237.177H484.034V232.232Z" fill="#CBCBCB"/>
</g>
<defs>
<clipPath id="clip0_18_129">
<rect width="556" height="403" fill="white"/>
</clipPath>
</defs>
</svg>
