<svg width="343" height="340" viewBox="0 0 343 340" fill="none" xmlns="http://www.w3.org/2000/svg">
<g clip-path="url(#clip0_18_80)">
<path d="M124.843 45.1871C123.998 43.7622 120.339 45.2879 119.667 43.9947C118.997 42.7062 122.396 40.743 124.338 36.2581C124.688 35.4493 126.895 30.3525 125.261 28.7799C122.164 25.7989 107.994 38.1007 103.035 34.075C101.947 33.1915 101.186 31.4278 97.8925 28.5642C96.5821 27.4251 95.7898 26.9108 95.0229 27.1021C93.9348 27.3736 93.8486 28.8289 92.6819 31.6902C90.9321 35.9812 89.8972 35.7221 88.8776 39.1457C88.1208 41.6872 88.2937 43.1648 87.4031 43.4527C86.1429 43.86 84.9829 41.1643 83.3858 41.4057C81.756 41.652 80.7706 44.7907 80.4594 47.1407C79.8753 51.5507 81.496 54.4607 82.3943 57.5206C83.3705 60.8459 83.9498 65.9029 81.6955 73.0619L59.3828 135.884C64.3088 122.993 78.5718 87.6556 84.5651 74.524C86.2952 70.7332 88.2055 66.8882 92.1281 65.3707C95.9045 63.9096 101.091 64.7819 107.703 63.1901C108.475 63.0043 110.618 62.4594 110.888 61.1999C111.111 60.1586 109.851 59.5773 110.044 58.6021C110.304 57.2939 112.783 57.2779 115.829 55.7686C117.977 54.7044 119.315 53.4387 120.465 52.3503C120.812 52.0221 125.969 47.084 124.843 45.1871Z" fill="#F2F2F2"/>
<path d="M37.0583 78.2593C36.1145 78.2629 35.8083 80.4974 34.9791 80.4542C34.1529 80.4111 34.1694 78.1775 32.5269 75.9311C32.2307 75.5259 30.3642 72.973 29.1203 73.3205C26.7627 73.9792 28.7162 84.4787 25.3081 85.7493C24.5602 86.0282 23.4745 85.8922 21.1177 86.6815C20.1802 86.9955 19.6989 87.2357 19.5716 87.667C19.3911 88.279 20.0809 88.7412 21.1496 90.139C22.7523 92.2353 22.3264 92.6681 23.7138 94.1559C24.7437 95.2604 25.5193 95.602 25.4037 96.1218C25.2401 96.8575 23.5814 96.6486 23.2392 97.5015C22.8899 98.372 24.1472 99.7608 25.2116 100.592C27.2091 102.15 29.1059 102.195 30.868 102.637C32.7828 103.118 35.4338 104.293 38.2995 107.464L62.7167 136.534C57.8066 130.399 44.566 113.207 39.8456 106.479C38.483 104.537 37.1457 102.49 37.5321 100.128C37.9041 97.8547 39.829 95.5626 40.955 91.8604C41.0866 91.428 41.4372 90.2198 40.8965 89.7241C40.4494 89.3142 39.8002 89.7648 39.3771 89.3884C38.8095 88.8835 39.5168 87.6631 39.6544 85.7337C39.7514 84.3732 39.5159 83.3518 39.3133 82.4733C39.2522 82.2085 38.3148 78.2545 37.0583 78.2593Z" fill="#F2F2F2"/>
<path d="M55.888 82.4826L55.3193 77.41L55.5791 77.0254C56.7814 75.2471 57.3942 73.5105 57.4015 71.8621C57.4028 71.6 57.3905 71.3379 57.3782 71.071C57.3292 70.0128 57.268 68.6975 57.9543 67.1642C58.3391 66.3094 59.42 64.3303 61.0451 64.5752C61.4826 64.6365 61.8136 64.8373 62.0648 65.0724C62.1015 65.0137 62.1395 64.9549 62.18 64.8912C62.6861 64.1196 63.0869 63.789 63.4729 63.4705C63.7695 63.2256 64.0759 62.9733 64.5563 62.3757C64.7671 62.1136 64.9313 61.8834 65.0698 61.6899C65.4902 61.1045 66.0392 60.4064 67.0074 60.4186C68.0418 60.4676 68.5835 61.3224 68.9426 61.8882C69.5835 62.8974 69.874 63.6249 70.0664 64.1074C70.1363 64.2837 70.2159 64.4821 70.2564 64.5434C70.5897 65.0332 73.2994 64.5752 74.3203 64.4086C76.6133 64.0265 78.5975 63.6959 79.4149 65.141C80.0008 66.1746 79.5657 67.5414 78.0827 69.3123C77.6207 69.8634 77.1293 70.2822 76.693 70.6105C77.0545 70.826 77.378 71.1567 77.5092 71.676C77.818 72.9055 76.7604 74.1376 74.3669 75.3427C73.7725 75.6439 72.9722 76.0457 71.8508 76.2392C71.3226 76.3298 70.8471 76.3518 70.4402 76.3641C70.4316 76.5992 70.3765 76.854 70.2331 77.116C69.8127 77.8876 68.9377 78.255 67.619 78.1668C66.1679 78.0909 64.973 77.8141 63.919 77.5716C62.9987 77.361 62.2057 77.1821 61.5831 77.2238C60.4287 77.3168 59.5389 78.2403 58.4948 79.438L55.888 82.4826Z" fill="#F2F2F2"/>
<path d="M58.526 52.2801L53.76 54.1165L53.3218 53.9629C51.2956 53.2518 49.4591 53.0999 47.8616 53.511C47.6076 53.5763 47.357 53.6546 47.1017 53.7342C46.0899 54.0499 44.8322 54.4428 43.174 54.1683C42.2489 54.0132 40.059 53.4703 39.8839 51.8374C39.8322 51.3989 39.9427 51.0281 40.1066 50.7256C40.0403 50.705 39.9738 50.6832 39.9019 50.6603C39.0267 50.3667 38.6049 50.0632 38.1988 49.7708C37.8864 49.5463 37.5645 49.3141 36.8642 49.0013C36.557 48.864 36.2925 48.7637 36.07 48.6789C35.3968 48.4211 34.5818 48.0674 34.3481 47.1284C34.1331 46.1162 34.8232 45.3758 35.2798 44.8851C36.094 44.0096 36.7245 43.5443 37.1428 43.2359C37.2958 43.1237 37.4676 42.9963 37.5166 42.9417C37.9063 42.4953 36.7756 39.9922 36.3554 39.0477C35.4039 36.9281 34.5806 35.0941 35.7721 33.9374C36.6241 33.1089 38.0574 33.1828 40.1478 34.167C40.7984 34.4738 41.3285 34.8426 41.7569 35.1811C41.8738 34.777 42.1118 34.3804 42.5812 34.1219C43.6931 33.5115 45.1539 34.2213 46.9276 36.2292C47.37 36.7274 47.9618 37.399 48.4335 38.4339C48.6552 38.9215 48.7972 39.3755 48.9123 39.7657C49.1421 39.7144 49.4026 39.7031 49.6927 39.7752C50.5462 39.9858 51.1238 40.7385 51.3729 42.0355C51.6674 43.4574 51.7026 44.6826 51.7352 45.7629C51.7648 46.706 51.7928 47.5178 51.9911 48.109C52.374 49.2013 53.4935 49.8271 54.9178 50.5326L58.526 52.2801Z" fill="#F2F2F2"/>
<path d="M55.888 37.3361L55.3193 32.2635L55.5791 31.8789C56.7814 30.1007 57.3942 28.364 57.4015 26.7156C57.4028 26.4535 57.3905 26.1914 57.3782 25.9245C57.3292 24.8663 57.268 23.551 57.9543 22.0177C58.3391 21.1629 59.42 19.1838 61.0451 19.4287C61.4826 19.49 61.8136 19.6908 62.0648 19.9259C62.1015 19.8672 62.1395 19.8084 62.18 19.7447C62.6861 18.9731 63.0869 18.6425 63.4729 18.3241C63.7695 18.0791 64.0759 17.8269 64.5563 17.2292C64.7671 16.9671 64.9313 16.7369 65.0698 16.5434C65.4902 15.958 66.0392 15.2599 67.0074 15.2721C68.0418 15.3211 68.5835 16.1759 68.9426 16.7418C69.5835 17.7509 69.874 18.4784 70.0664 18.9609C70.1363 19.1372 70.2159 19.3356 70.2564 19.3969C70.5897 19.8868 73.2994 19.4287 74.3203 19.2621C76.6133 18.88 78.5975 18.5494 79.4149 19.9945C80.0008 21.0281 79.5657 22.3949 78.0827 24.1658C77.6207 24.7169 77.1293 25.1357 76.693 25.464C77.0545 25.6795 77.378 26.0102 77.5092 26.5295C77.818 27.759 76.7604 28.9911 74.3669 30.1962C73.7725 30.4975 72.9722 30.8992 71.8508 31.0927C71.3226 31.1833 70.8471 31.2054 70.4402 31.2176C70.4316 31.4527 70.3765 31.7075 70.2331 31.9696C69.8127 32.7411 68.9377 33.1085 67.619 33.0203C66.1679 32.9444 64.973 32.6676 63.919 32.4251C62.9987 32.2145 62.2057 32.0357 61.5831 32.0773C60.4287 32.1704 59.5389 33.0938 58.4948 34.2916L55.888 37.3361Z" fill="#F2F2F2"/>
<path d="M61.0817 135.801L60.0179 135.135L58.7777 135.277C58.758 135.162 58.6906 134.897 58.5889 134.483C58.0338 132.215 56.3413 125.313 54.9294 114.443C53.9441 106.854 53.3865 99.0532 53.2713 91.252C53.156 83.4385 53.5262 77.5232 53.8228 72.769C54.047 69.1831 54.3191 65.7687 54.5863 62.4424C55.2971 53.5561 55.9675 45.1621 55.4687 35.8692C55.3584 33.7946 55.1267 29.4763 52.6021 24.8813C51.1376 22.2163 49.1203 19.8503 46.6055 17.8516L48.1693 15.8872C50.9451 18.0965 53.1769 20.7174 54.8032 23.6762C57.6024 28.7709 57.8548 33.4762 57.9762 35.7369C58.4835 45.194 57.8058 53.6688 57.0876 62.6409C56.8229 65.9549 56.5508 69.3546 56.3278 72.9258C56.0336 77.6359 55.6672 83.4997 55.7812 91.2128C55.894 98.921 56.4454 106.627 57.4173 114.119C58.812 124.853 60.48 131.652 61.0278 133.886C61.3195 135.079 61.3807 135.328 61.0817 135.801Z" fill="#F2F2F2"/>
<path d="M42.0025 21.8365C41.8996 21.8365 41.7954 21.834 41.69 21.8267C39.5526 21.7115 37.5734 20.433 35.8061 18.0277C34.9777 16.8961 34.5536 15.6053 33.708 13.031C33.5768 12.6342 32.9395 10.6208 32.5523 7.85053C32.2986 6.04043 32.3305 5.2836 32.6895 4.61491C33.0879 3.8703 33.7325 3.35104 34.458 3.00078C34.4262 2.76073 34.4519 2.51335 34.5561 2.26106C34.9838 1.21518 36.1211 1.35236 36.7363 1.41849C37.0476 1.45767 37.4361 1.50911 37.8553 1.48706C38.5146 1.45523 38.8688 1.25926 39.4056 0.965324C39.9191 0.68364 40.5576 0.333389 41.505 0.139885C43.3727 -0.24956 44.9377 0.279505 45.4537 0.453396C48.1683 1.35721 49.5066 3.46613 51.0557 5.90814C51.3645 6.39802 52.4246 8.18114 53.1244 10.6256C53.6293 12.3892 53.5583 13.173 53.4063 13.7559C53.0974 14.9537 52.3682 15.6395 50.5164 17.1532C48.5825 18.738 47.6119 19.5316 46.7785 20.0141C44.8385 21.1335 43.6202 21.8365 42.0025 21.8365Z" fill="#F2F2F2"/>
<path d="M146.403 337.111C146.403 337.447 146.673 337.716 147.008 337.716H272.745C273.08 337.716 273.35 337.447 273.35 337.111C273.35 336.949 273.289 336.807 273.187 336.7H227.568C226.597 336.7 225.646 336.634 224.711 336.507H147.008C146.673 336.507 146.403 336.776 146.403 337.111Z" fill="#3F3D56"/>
<path d="M85.6547 230.139H155.653C167.512 230.139 177.125 239.746 177.125 251.596V307.707C177.125 319.557 167.512 329.164 155.653 329.164H85.6547C73.796 329.164 64.1826 319.557 64.1826 307.707V251.596C64.1826 239.746 73.796 230.139 85.6547 230.139Z" fill="white"/>
<path d="M63.6738 307.707V251.596C63.6738 239.485 73.5344 229.631 85.6544 229.631H155.653C167.773 229.631 177.634 239.485 177.634 251.596V307.707C177.634 319.818 167.773 329.672 155.653 329.672H85.6544C73.5344 329.672 63.6738 319.818 63.6738 307.707ZM85.6544 230.648C74.0949 230.648 64.6907 240.045 64.6907 251.596V307.707C64.6907 319.258 74.0949 328.655 85.6544 328.655H155.653C167.212 328.655 176.617 319.258 176.617 307.707V251.596C176.617 240.045 167.212 230.648 155.653 230.648H85.6544Z" fill="#3F3D56"/>
<path d="M111.826 254.707H127.504L111.228 302.897C110.885 303.912 109.933 304.596 108.86 304.596H96.6583C95.2799 304.596 94.1623 303.48 94.1621 302.102C94.1621 301.831 94.2063 301.562 94.2931 301.305L109.457 256.406C109.8 255.391 110.753 254.707 111.826 254.707L111.826 254.707Z" fill="url(#paint0_linear_18_80)"/>
<path d="M134.609 287.029H109.747C109.111 287.029 108.595 287.543 108.595 288.178C108.594 288.497 108.727 288.803 108.961 289.02L124.937 303.921C125.402 304.355 126.015 304.596 126.651 304.596H140.729L134.609 287.029Z" fill="#0078D4"/>
<path d="M111.826 254.707C110.74 254.702 109.778 255.404 109.452 256.439L94.3122 301.263C93.8472 302.558 94.5209 303.985 95.8168 304.449C96.089 304.547 96.3761 304.596 96.6653 304.595H109.182C110.131 304.426 110.916 303.759 111.235 302.851L114.254 293.959L125.039 304.011C125.491 304.384 126.058 304.591 126.644 304.596H140.67L134.518 287.029L116.586 287.033L127.561 254.707L111.826 254.707Z" fill="url(#paint1_linear_18_80)"/>
<path d="M131.851 256.403C131.509 255.389 130.557 254.706 129.486 254.707H112.013C113.084 254.707 114.035 255.389 114.378 256.403L129.542 301.303C129.983 302.609 129.282 304.024 127.975 304.465C127.718 304.552 127.448 304.596 127.177 304.596H144.651C146.03 304.596 147.147 303.478 147.147 302.101C147.147 301.83 147.103 301.56 147.016 301.303L131.851 256.403Z" fill="url(#paint2_linear_18_80)"/>
<path d="M22.6068 105.147H92.6054C104.464 105.147 114.078 114.754 114.078 126.604V182.715C114.078 194.565 104.464 204.172 92.6055 204.172H22.6068C10.7481 204.172 1.13477 194.565 1.13477 182.715V126.604C1.13477 114.754 10.7481 105.147 22.6068 105.147Z" fill="white"/>
<path d="M0.625977 182.715V126.605C0.625977 114.493 10.4865 104.64 22.6065 104.64H92.6052C104.725 104.64 114.586 114.493 114.586 126.605V182.715C114.586 194.827 104.725 204.68 92.6052 204.68H22.6065C10.4865 204.68 0.625977 194.827 0.625977 182.715ZM22.6065 105.656C11.0471 105.656 1.64289 115.053 1.64289 126.605V182.715C1.64289 194.266 11.0471 203.664 22.6065 203.664H92.6052C104.165 203.664 113.569 194.266 113.569 182.715V126.605C113.569 115.053 104.165 105.656 92.6052 105.656L22.6065 105.656Z" fill="#3F3D56"/>
<path d="M43.6261 155.519C43.6261 156.306 43.7113 156.945 43.8605 157.414C44.031 157.882 44.2441 158.393 44.5424 158.947C44.649 159.117 44.6916 159.288 44.6916 159.437C44.6916 159.65 44.5637 159.863 44.2867 160.076L42.9441 160.97C42.7523 161.098 42.5606 161.162 42.3901 161.162C42.177 161.162 41.9639 161.055 41.7508 160.864C41.4524 160.544 41.1967 160.203 40.9836 159.863C40.7705 159.501 40.5574 159.096 40.323 158.606C38.6608 160.566 36.5724 161.545 34.0578 161.545C32.2677 161.545 30.8399 161.034 29.7957 160.012C28.7515 158.99 28.2188 157.627 28.2188 155.923C28.2188 154.113 28.8581 152.644 30.158 151.536C31.4579 150.429 33.184 149.875 35.379 149.875C36.1035 149.875 36.8494 149.939 37.6379 150.046C38.4264 150.152 39.2362 150.323 40.0886 150.514V148.96C40.0886 147.341 39.7476 146.213 39.087 145.552C38.4051 144.892 37.2543 144.573 35.6134 144.573C34.8675 144.573 34.1004 144.658 33.3119 144.85C32.5234 145.041 31.7562 145.276 31.0104 145.574C30.6694 145.723 30.4137 145.808 30.2645 145.851C30.1154 145.893 30.0088 145.914 29.9236 145.914C29.6252 145.914 29.476 145.701 29.476 145.254V144.211C29.476 143.87 29.5187 143.615 29.6252 143.465C29.7318 143.316 29.9236 143.167 30.2219 143.018C30.9678 142.635 31.8628 142.316 32.907 142.06C33.9512 141.783 35.0593 141.655 36.2314 141.655C38.7673 141.655 40.6213 142.23 41.8147 143.38C42.9867 144.53 43.5834 146.276 43.5834 148.619V155.519L43.6261 155.519ZM34.9741 158.755C35.6773 158.755 36.4019 158.628 37.1691 158.372C37.9362 158.117 38.6182 157.648 39.1935 157.009C39.5345 156.605 39.7902 156.157 39.9181 155.646C40.0459 155.135 40.1312 154.518 40.1312 153.794V152.899C39.5132 152.75 38.8526 152.622 38.1706 152.537C37.4887 152.452 36.8281 152.409 36.1675 152.409C34.7397 152.409 33.6955 152.686 32.9922 153.261C32.289 153.836 31.948 154.645 31.948 155.71C31.948 156.711 32.2038 157.456 32.7365 157.968C33.248 158.5 33.9938 158.755 34.9741 158.755ZM52.0862 161.055C51.7027 161.055 51.4469 160.991 51.2764 160.842C51.106 160.715 50.9568 160.416 50.8289 160.012L45.821 143.551C45.6932 143.125 45.6292 142.848 45.6292 142.699C45.6292 142.358 45.7997 142.166 46.1407 142.166H48.2291C48.634 142.166 48.911 142.23 49.0602 142.379C49.2307 142.507 49.3585 142.805 49.4864 143.21L53.0665 157.307L56.3909 143.21C56.4975 142.784 56.6253 142.507 56.7958 142.379C56.9663 142.252 57.2646 142.166 57.6482 142.166H59.353C59.7579 142.166 60.035 142.23 60.2055 142.379C60.3759 142.507 60.5251 142.805 60.6103 143.21L63.9774 157.478L67.664 143.21C67.7919 142.784 67.9411 142.507 68.0902 142.379C68.2607 142.252 68.5378 142.166 68.9213 142.166H70.9032C71.2442 142.166 71.436 142.337 71.436 142.699C71.436 142.805 71.4146 142.912 71.3933 143.04C71.372 143.167 71.3294 143.338 71.2442 143.572L66.1084 160.033C65.9805 160.459 65.8314 160.736 65.6609 160.864C65.4904 160.991 65.2134 161.077 64.8511 161.077H63.0184C62.6135 161.077 62.3365 161.013 62.166 160.864C61.9955 160.715 61.8463 160.438 61.7611 160.012L58.458 146.276L55.1762 159.991C55.0697 160.416 54.9418 160.693 54.7713 160.842C54.6009 160.991 54.3025 161.055 53.9189 161.055L52.0862 161.055ZM79.4699 161.63C78.3618 161.63 77.2537 161.503 76.1881 161.247C75.1226 160.991 74.2915 160.715 73.7375 160.395C73.3965 160.203 73.1621 159.991 73.0768 159.799C72.9916 159.607 72.949 159.394 72.949 159.203V158.117C72.949 157.669 73.1195 157.456 73.4391 157.456C73.567 157.456 73.6948 157.478 73.8227 157.52C73.9506 157.563 74.1424 157.648 74.3555 157.733C75.08 158.053 75.8685 158.308 76.6996 158.479C77.552 158.649 78.3831 158.734 79.2355 158.734C80.5781 158.734 81.6223 158.5 82.3468 158.031C83.0714 157.563 83.4549 156.881 83.4549 156.008C83.4549 155.412 83.2632 154.922 82.8796 154.518C82.496 154.113 81.7714 153.751 80.7272 153.41L77.6373 152.452C76.0816 151.962 74.9309 151.238 74.2276 150.28C73.5244 149.343 73.1621 148.299 73.1621 147.192C73.1621 146.298 73.3539 145.51 73.7375 144.828C74.1211 144.147 74.6325 143.551 75.2718 143.082C75.9111 142.592 76.6357 142.23 77.4881 141.975C78.3405 141.719 79.2355 141.613 80.1732 141.613C80.642 141.613 81.1321 141.634 81.601 141.698C82.0911 141.762 82.5386 141.847 82.9861 141.932C83.4123 142.039 83.8172 142.145 84.2008 142.273C84.5844 142.401 84.8828 142.528 85.0959 142.656C85.3942 142.827 85.6073 142.997 85.7352 143.189C85.863 143.359 85.927 143.593 85.927 143.891V144.892C85.927 145.339 85.7565 145.574 85.4368 145.574C85.2663 145.574 84.9893 145.489 84.627 145.318C83.4123 144.765 82.0485 144.488 80.5355 144.488C79.3208 144.488 78.3618 144.679 77.7012 145.084C77.0406 145.489 76.6996 146.106 76.6996 146.979C76.6996 147.575 76.9127 148.087 77.3389 148.491C77.7651 148.896 78.5536 149.3 79.6831 149.662L82.7091 150.621C84.2435 151.11 85.3516 151.792 86.0122 152.665C86.6728 153.538 86.9925 154.539 86.9925 155.646C86.9925 156.562 86.8007 157.393 86.4384 158.117C86.0548 158.841 85.5434 159.479 84.8828 159.991C84.2221 160.523 83.4337 160.906 82.5173 161.183C81.5583 161.481 80.5567 161.63 79.4699 161.63Z" fill="#252F3E"/>
<path fill-rule="evenodd" clip-rule="evenodd" d="M83.4974 171.979C76.4864 177.154 66.3001 179.901 57.5415 179.901C45.2668 179.901 34.2068 175.365 25.8532 167.827C25.1926 167.231 25.7893 166.421 26.5777 166.89C35.6133 172.129 46.7586 175.302 58.2874 175.302C66.0657 175.302 74.6111 173.683 82.4746 170.361C83.6466 169.829 84.6482 171.128 83.4974 171.979Z" fill="#FF9900"/>
<path fill-rule="evenodd" clip-rule="evenodd" d="M86.4165 168.658C85.5214 167.508 80.4922 168.104 78.212 168.381C77.5301 168.466 77.4235 167.87 78.0415 167.422C82.0479 164.611 88.6327 165.421 89.3999 166.358C90.1671 167.316 89.1868 173.896 85.4362 177.048C84.8608 177.538 84.3067 177.282 84.5625 176.643C85.4149 174.535 87.3115 169.786 86.4165 168.658Z" fill="#FF9900"/>
<path d="M218.465 142.516C217.956 142.008 213.889 131.338 213.889 131.338L204.228 130.83L199.808 141.244L218.465 142.516Z" fill="#FFB6B6"/>
<path d="M204.758 135.746C211.94 135.746 217.762 129.928 217.762 122.751C217.762 115.574 211.94 109.756 204.758 109.756C197.576 109.756 191.754 115.574 191.754 122.751C191.754 129.928 197.576 135.746 204.758 135.746Z" fill="#FFB6B6"/>
<path d="M229.396 212.888L233.972 228.131L221.769 316.54H213.508L209.058 249.979L203.973 272.843L229.904 305.87L223.294 313.491L185.923 277.162L186.686 221.018L189.736 212.38L229.396 212.888Z" fill="#2F2E41"/>
<path d="M215.661 133.426L214.645 133.476C214.645 133.476 213.737 125.382 213.204 124.899C212.671 124.417 211.705 125.482 211.705 125.482C211.705 125.482 207.518 123.144 207.393 120.607C207.267 118.069 207.167 116.039 205.644 116.114C204.12 116.189 195.587 118.644 193.556 118.744C191.524 118.844 188.302 115.442 191.707 112.222C195.112 109.002 198.109 107.837 198.592 107.305C199.074 106.772 202.253 104.581 205.031 106.479C207.808 108.377 211.363 108.202 211.363 108.202C211.363 108.202 218.04 109.4 217.174 112.495C216.308 115.589 219.656 121.529 218.282 124.649C216.909 127.769 215.661 133.426 215.661 133.426Z" fill="#2F2E41"/>
<path d="M213.126 315.015L222.278 316.031L223.295 332.799C223.295 332.799 222.786 340.928 214.143 339.912C205.499 338.896 208.041 330.766 208.041 330.766L213.126 315.015Z" fill="#2F2E41"/>
<path d="M225.074 303.075C225.074 303.075 231.684 300.026 232.701 303.583L234.735 310.696C234.735 310.696 234.735 317.81 235.244 318.318C235.752 318.826 245.413 332.036 236.769 339.15C236.769 339.15 232.193 339.658 229.65 332.545C227.108 325.431 219.481 318.318 219.481 318.318C219.481 318.318 218.004 314.761 220.522 315.015C223.041 315.269 226.6 309.172 225.583 307.14C224.566 305.107 225.074 303.075 225.074 303.075Z" fill="#2F2E41"/>
<path d="M141.127 236.694C138.762 235.699 138.113 231.881 139.679 228.165C140.285 226.672 141.239 225.346 142.462 224.297L144.289 220.108L144.224 220.064L149.478 199.14C150.7 194.274 154.063 190.17 158.683 188.207C161.43 187.039 164.038 186.828 164.796 189.626C166.054 194.269 157.86 209.224 152.919 217.639L149.069 227.078C149.173 228.686 148.89 230.295 148.244 231.771C146.679 235.486 143.493 237.69 141.127 236.694Z" fill="#FFB6B6"/>
<path d="M200.16 139.468L216.939 139.976L233.21 147.09L230.668 189.262C230.668 189.262 233.718 198.916 232.193 200.44C230.668 201.964 232.193 208.797 231.176 208.937C230.159 209.077 231.176 216.427 231.176 216.427C231.176 216.427 216.939 211.618 204.736 214.667C192.533 217.715 188.466 212.634 188.466 212.634C188.466 212.634 185.415 200.44 185.415 197.899V145.95L200.16 139.468Z" fill="#FFF050"/>
<path d="M188.211 145.819C188.211 145.819 181.093 143.787 177.533 148.868C173.974 153.949 171.94 153.949 171.94 160.554C171.94 160.554 151.094 190.024 152.111 193.072L147.28 200.948L159.483 207.553C159.483 207.553 163.805 203.234 163.805 199.17C163.805 195.105 176.008 183.927 176.008 183.927C176.008 183.927 186.686 170.208 187.194 165.127C187.703 160.046 188.211 145.819 188.211 145.819Z" fill="#FFF050"/>
<path d="M250.903 239.285H320.901C332.76 239.285 342.373 248.891 342.373 260.742V316.852C342.373 328.702 332.76 338.309 320.901 338.309H250.903C239.044 338.309 229.431 328.702 229.431 316.852V260.742C229.431 248.891 239.044 239.285 250.903 239.285Z" fill="white"/>
<path d="M228.414 316.345V260.234C228.414 248.123 238.275 238.269 250.395 238.269H320.393C332.513 238.269 342.374 248.123 342.374 260.234V316.345C342.374 328.456 332.513 338.309 320.393 338.309H250.395C238.275 338.309 228.414 328.456 228.414 316.345ZM250.395 239.285C238.835 239.285 229.431 248.683 229.431 260.234V316.345C229.431 327.896 238.835 337.293 250.395 337.293H320.393C331.953 337.293 341.357 327.896 341.357 316.345V260.234C341.357 248.683 331.953 239.285 320.393 239.285H250.395Z" fill="#3F3D56"/>
<path d="M294.813 278.516H296.541L301.463 273.597L301.705 271.508C292.543 263.427 278.56 264.298 270.474 273.454C268.227 275.997 266.597 279.022 265.708 282.296C266.256 282.072 266.864 282.035 267.435 282.193L277.281 280.57C277.281 280.57 277.782 279.742 278.041 279.793C282.421 274.987 289.791 274.427 294.848 278.516L294.813 278.516Z" fill="#EA4335"/>
<path d="M308.476 282.296C307.344 278.132 305.021 274.389 301.791 271.525L294.882 278.43C297.799 280.812 299.461 284.401 299.39 288.165V289.39C302.786 289.39 305.539 292.142 305.539 295.535C305.539 298.929 302.786 301.68 299.39 301.68H287.092L285.865 302.923V310.293L287.092 311.519H299.39C308.224 311.588 315.44 304.487 315.509 295.66C315.551 290.31 312.911 285.294 308.476 282.296Z" fill="#4285F4"/>
<path d="M274.777 311.45H287.075V301.611H274.777C273.901 301.611 273.035 301.423 272.238 301.059L270.51 301.594L265.553 306.514L265.121 308.24C267.901 310.337 271.293 311.465 274.777 311.45Z" fill="#34A853"/>
<path d="M274.776 279.535C265.943 279.588 258.824 286.786 258.877 295.614C258.907 300.543 261.211 305.183 265.121 308.188L272.254 301.059C269.16 299.662 267.784 296.022 269.182 292.929C270.581 289.837 274.223 288.462 277.318 289.859C278.682 290.475 279.774 291.567 280.39 292.929L287.524 285.8C284.489 281.835 279.772 279.517 274.776 279.535Z" fill="#FBBC05"/>
<path d="M243.42 248.192C245.983 248.058 247.89 244.686 247.678 240.66C247.616 239.05 247.169 237.479 246.374 236.078L246.078 231.518L246.154 231.499L248.319 210.034C248.822 205.043 247.052 200.042 243.374 196.628C241.186 194.598 238.805 193.515 237.141 195.89C234.381 199.83 237.01 216.677 238.8 226.268L239.215 236.453C238.571 237.93 238.29 239.54 238.397 241.147C238.607 245.172 240.856 248.326 243.42 248.192Z" fill="#FFB6B6"/>
<path d="M229.994 146.742C229.994 146.742 237.381 147.244 239.003 153.231C240.625 159.217 242.538 159.907 240.295 166.12C240.295 166.12 249.896 200.911 247.904 203.433L249.772 212.48L236.05 214.554C236.05 214.554 233.452 209.026 234.832 205.203C236.213 201.379 228.531 186.726 228.531 186.726C228.531 186.726 223.146 170.2 224.394 165.248C225.641 160.296 229.994 146.742 229.994 146.742Z" fill="#FFF050"/>
</g>
<defs>
<linearGradient id="paint0_linear_18_80" x1="117.54" y1="258.404" x2="101.278" y2="306.48" gradientUnits="userSpaceOnUse">
<stop stop-color="#114A8B"/>
<stop offset="1" stop-color="#0669BC"/>
</linearGradient>
<linearGradient id="paint1_linear_18_80" x1="122.626" y1="280.804" x2="118.861" y2="282.078" gradientUnits="userSpaceOnUse">
<stop stop-opacity="0.3"/>
<stop offset="0.071" stop-opacity="0.2"/>
<stop offset="0.321" stop-opacity="0.1"/>
<stop offset="0.623" stop-opacity="0.05"/>
<stop offset="1" stop-opacity="0"/>
</linearGradient>
<linearGradient id="paint2_linear_18_80" x1="120.672" y1="256.958" x2="138.524" y2="304.55" gradientUnits="userSpaceOnUse">
<stop stop-color="#3CCBF4"/>
<stop offset="1" stop-color="#2892DF"/>
</linearGradient>
<clipPath id="clip0_18_80">
<rect width="341.748" height="340" fill="white" transform="translate(0.625977)"/>
</clipPath>
</defs>
</svg>
